<?xml version="1.0"?>
<svg xmlns="http://www.w3.org/2000/svg" width="512px" height="512px" viewBox="0 0 128 128" data-ember-extension="1"><g><g><path d="M97.717,83.446A22.243,22.243,0,0,0,84.8,87.593L76.031,72.486,99.465,32.109A27.064,27.064,0,0,0,96.359.593a1.752,1.752,0,0,0-2.827.278L64,51.755,34.468.871A1.752,1.752,0,0,0,31.641.593a27.064,27.064,0,0,0-3.106,31.516L51.968,72.486,43.2,87.593A22.252,22.252,0,1,0,30.283,128H42.8a1.749,1.749,0,0,0,1.513-.871L64,93.216l19.683,33.913A1.749,1.749,0,0,0,85.2,128H97.717a22.277,22.277,0,0,0,0-44.554Zm-31.694-28.2L95.271,4.848a23.565,23.565,0,0,1,1.167,25.5L74.008,69l-1.243-2.142ZM41.8,124.5H30.283A18.777,18.777,0,1,1,42.558,91.536a1.75,1.75,0,0,0,2.659-.444l8.775-15.12,7.984,13.757Zm62.149-1.082a18.71,18.71,0,0,1-6.228,1.082H86.2L65.515,88.852v0L55.506,71.606h0L31.562,30.352a23.565,23.565,0,0,1,1.167-25.5L82.783,91.092a1.75,1.75,0,0,0,2.659.444,18.763,18.763,0,1,1,18.5,31.882Z" data-original="#000000" class="active-path" data-old_color="#000000" fill="#FFFFFF"/><path d="M97.717,93.446a12.277,12.277,0,1,0,12.277,12.277A12.291,12.291,0,0,0,97.717,93.446Zm0,21.054a8.777,8.777,0,1,1,8.777-8.777A8.786,8.786,0,0,1,97.717,114.5Z" data-original="#000000" class="active-path" data-old_color="#000000" fill="#FFFFFF"/><path d="M30.283,93.446A12.277,12.277,0,1,0,42.56,105.724,12.291,12.291,0,0,0,30.283,93.446Zm0,21.054a8.777,8.777,0,1,1,8.777-8.776A8.787,8.787,0,0,1,30.283,114.5Z" data-original="#000000" class="active-path" data-old_color="#000000" fill="#FFFFFF"/><path d="M64,67.128a4.75,4.75,0,1,0,4.75,4.75A4.756,4.756,0,0,0,64,67.128Zm0,6a1.25,1.25,0,1,1,1.25-1.25A1.251,1.251,0,0,1,64,73.128Z" data-original="#000000" class="active-path" data-old_color="#000000" fill="#FFFFFF"/></g></g> </svg>
